<svg width="1150" height="900" viewBox="0 0 1150 900" fill="none" xmlns="http://www.w3.org/2000/svg">
<rect x="2" y="2" width="1146" height="896" rx="28" stroke="#BDBDBD" stroke-width="4"/>
<path d="M758.264 244.224L740.814 175.544L716.273 78.9789L714.881 73.5279V73.5145L705.18 35.3306C703.583 29.0794 699.575 23.7172 694.033 20.4205C688.491 17.1238 681.87 16.1617 675.62 17.7453L611.148 34.152L208.314 136.703C202.069 138.301 196.711 142.314 193.417 147.86C190.124 153.406 189.162 160.034 190.745 166.289L204.648 221.013L239.975 360.021L253.263 412.321L253.945 415H256.889L256.207 412.321L243.508 362.311V362.298L206.655 217.304L193.514 165.593C192.118 160.071 192.967 154.221 195.875 149.325C198.782 144.429 203.511 140.887 209.024 139.476L611.015 37.1387L676.316 20.5178C681.833 19.1205 687.678 19.97 692.569 22.88C697.461 25.7899 701 30.5227 702.41 36.0405L712.713 76.5682L714.105 82.0728L737.951 175.919L755.306 244.224L756.029 247.09H759L758.264 244.224Z" fill="#CCCCCC"/>
<path d="M325 339C363.108 339 394 308.108 394 270C394 231.892 363.108 201 325 201C286.892 201 256 231.892 256 270C256 308.108 286.892 339 325 339Z" fill="#F2F2F2"/>
<path d="M481.681 244.163L485 247.026H432.253C426.539 247.033 421.061 249.296 417.021 253.32C412.981 257.344 410.709 262.8 410.702 268.491V432.233L409.937 471L376.228 440.971L373.07 441.774L348.08 419.814C344.402 416.577 339.661 414.792 334.753 414.796H269L270.008 412.119L283.147 377.152L357.646 178.765L365.305 158.385C365.775 157.132 366.544 156.011 367.543 155.118C368.543 154.225 369.745 153.586 371.047 153.256C372.348 152.926 373.711 152.915 375.018 153.223C376.324 153.531 377.537 154.15 378.552 155.026L428.679 198.343L458.183 223.849L481.681 244.163Z" fill="#E6E6E6"/>
<path d="M699.677 244.125L703 247H542L543.086 244.125L577.379 153.389C577.849 152.136 578.615 151.015 579.61 150.122C580.605 149.228 581.801 148.589 583.095 148.258C584.39 147.927 585.745 147.914 587.045 148.221C588.346 148.527 589.554 149.143 590.566 150.017L658.736 208.825L662.663 212.196L699.677 244.125Z" fill="#E6E6E6"/>
<path d="M762.474 272C756.213 271.995 750.037 273.461 744.431 276.281C738.825 279.101 733.942 283.199 730.167 288.252C726.116 286.488 721.694 285.77 717.301 286.161C712.907 286.553 708.678 288.042 704.993 290.495C701.309 292.949 698.284 296.289 696.191 300.217C694.097 304.145 693.001 308.538 693 313H803C803 307.616 801.952 302.284 799.915 297.31C797.879 292.336 794.893 287.816 791.13 284.009C787.367 280.201 782.899 277.181 777.982 275.121C773.066 273.06 767.796 272 762.474 272V272Z" fill="#E6E6E6"/>
<path d="M914.665 244H432.335C426.908 244.009 421.639 245.825 417.362 249.16C413.086 252.495 410.045 257.159 408.723 262.413V262.426C408.243 264.345 408 266.315 408 268.292V471.798L409.566 473.174L410.864 474.323V268.292C410.87 262.61 413.134 257.162 417.16 253.144C421.185 249.126 426.642 246.866 432.335 246.859H914.665C920.358 246.863 925.817 249.123 929.842 253.141C933.868 257.16 936.131 262.609 936.135 268.292V515.933H937.501C938.001 515.928 938.502 515.951 939 516V268.292C938.991 261.852 936.424 255.679 931.862 251.125C927.3 246.572 921.116 244.009 914.665 244V244Z" fill="#3F3D56"/>
<path d="M520.5 431C556.675 431 586 401.675 586 365.5C586 329.325 556.675 300 520.5 300C484.325 300 455 329.325 455 365.5C455 401.675 484.325 431 520.5 431Z" fill="#95BDF4"/>
<path d="M915 516H466.147C460.6 515.984 455.247 513.965 451.075 510.318L441 501.454L442.541 499.235L445.327 495.224L566.306 321.408L578.725 303.56C579.489 302.461 580.509 301.564 581.696 300.944C582.884 300.324 584.204 300 585.544 300C586.885 300 588.205 300.324 589.392 300.944C590.58 301.564 591.6 302.461 592.364 303.56L630.118 357.799V357.813L652.331 389.726L705.357 465.905L785.782 351.342C786.548 350.249 787.566 349.357 788.751 348.74C789.936 348.124 791.252 347.802 792.588 347.802C793.924 347.802 795.241 348.124 796.425 348.74C797.61 349.357 798.628 350.249 799.394 351.342L850.987 424.82L853.948 429.045L913.125 513.326L915 516Z" fill="#3F3D56"/>
<path d="M675.263 340C667.58 339.994 659.999 341.781 653.119 345.22C646.239 348.66 640.247 353.657 635.615 359.819C630.642 357.668 625.216 356.792 619.823 357.27C614.431 357.747 609.241 359.563 604.719 362.555C600.197 365.547 596.485 369.621 593.916 374.411C591.347 379.201 590.001 384.558 590 390H725C725 383.434 723.714 376.932 721.214 370.866C718.715 364.8 715.051 359.288 710.432 354.645C705.814 350.002 700.331 346.319 694.297 343.806C688.262 341.293 681.795 340 675.263 340V340Z" fill="#CCCCCC"/>
<path d="M441.254 498.145L424.602 483.48L424.561 483.453L424.508 483.413L424.468 483.373C423.946 482.998 423.423 482.61 422.915 482.208C422.781 482.115 422.661 482.021 422.54 481.927C422.473 481.874 422.42 481.834 422.353 481.78C422.326 481.767 422.312 481.74 422.286 481.727C421.911 481.432 421.523 481.125 421.148 480.817C420.961 480.683 420.787 480.536 420.599 480.389C420.091 479.974 419.582 479.546 419.073 479.117C418.538 478.663 418.002 478.208 417.467 477.739C417.453 477.726 417.427 477.713 417.414 477.699C417.306 477.605 417.212 477.512 417.106 477.432C416.596 476.977 416.088 476.522 415.579 476.04C415.151 475.652 414.723 475.25 414.308 474.862C413.919 474.501 413.531 474.14 413.157 473.752L413.076 473.672C412.795 473.404 412.514 473.123 412.22 472.829C411.938 472.561 411.671 472.28 411.403 471.999C411.122 471.731 410.854 471.45 410.6 471.169L410.386 470.955L410.319 470.888L407.735 468.6V472.173L409.302 473.551L410.6 474.702L438.108 498.948L440.691 501.236L441.347 501.811L441.963 500.915L442.887 499.59L441.254 498.145ZM841.039 513.693C841.079 514.576 841.146 515.473 841.213 516.369H935.878V513.693H841.039ZM441.254 498.145L424.602 483.48L424.561 483.453L424.508 483.413L424.468 483.373C423.946 482.998 423.423 482.61 422.915 482.208C422.781 482.115 422.661 482.021 422.54 481.927C422.473 481.874 422.42 481.834 422.353 481.78C422.326 481.767 422.312 481.74 422.286 481.727C421.911 481.432 421.523 481.125 421.148 480.817C420.961 480.683 420.787 480.536 420.599 480.389C420.091 479.974 419.582 479.546 419.073 479.117C418.538 478.663 418.002 478.208 417.467 477.739C417.453 477.726 417.427 477.713 417.414 477.699C417.306 477.605 417.212 477.512 417.106 477.432C416.596 476.977 416.088 476.522 415.579 476.04C415.151 475.652 414.723 475.25 414.308 474.862C413.919 474.501 413.531 474.14 413.157 473.752L413.076 473.672C412.795 473.404 412.514 473.123 412.22 472.829C411.938 472.561 411.671 472.28 411.403 471.999C411.122 471.731 410.854 471.45 410.6 471.169L410.386 470.955L410.319 470.888L407.735 468.6V472.173L409.302 473.551L410.6 474.702L438.108 498.948L440.691 501.236L441.347 501.811L441.963 500.915L442.887 499.59L441.254 498.145ZM913.069 513.693H841.039C841.079 514.576 841.146 515.473 841.213 516.369H914.943L913.069 513.693ZM441.254 498.145L424.602 483.48L424.561 483.453L424.508 483.413L424.468 483.373C423.946 482.998 423.423 482.61 422.915 482.208C422.781 482.115 422.661 482.021 422.54 481.927C422.473 481.874 422.42 481.834 422.353 481.78C422.326 481.767 422.312 481.74 422.286 481.727C421.911 481.432 421.523 481.125 421.148 480.817C420.961 480.683 420.787 480.536 420.599 480.389C420.091 479.974 419.582 479.546 419.073 479.117C418.538 478.663 418.002 478.208 417.467 477.739C417.453 477.726 417.427 477.713 417.414 477.699C417.306 477.605 417.212 477.512 417.106 477.432C416.596 476.977 416.088 476.522 415.579 476.04C415.151 475.652 414.723 475.25 414.308 474.862C413.919 474.501 413.531 474.14 413.157 473.752L413.076 473.672C412.795 473.404 412.514 473.123 412.22 472.829C411.938 472.561 411.671 472.28 411.403 471.999C411.122 471.731 410.854 471.45 410.6 471.169L410.386 470.955L410.319 470.888L407.735 468.6V472.173L409.302 473.551L410.6 474.702L438.108 498.948L440.691 501.236L441.347 501.811L441.963 500.915L442.887 499.59L441.254 498.145ZM376.252 440.849L349.975 417.687C345.821 414.021 340.47 411.998 334.929 412H256.206L256.889 414.676H334.929C339.82 414.672 344.543 416.457 348.208 419.694L373.106 441.652L407.735 472.173V468.6L376.252 440.849ZM938.743 513.747C938.248 513.707 937.752 513.693 937.244 513.693H466.473C461.948 513.699 457.554 512.17 454.01 509.358C453.729 509.144 453.461 508.916 453.194 508.675L443.851 500.433L442.887 499.59L441.254 498.145L424.602 483.48L424.561 483.453L424.508 483.413L424.468 483.373L413.344 473.551L410.6 471.129L410.386 470.955L410.318 470.888L407.735 468.6L376.252 440.849L349.975 417.687C345.821 414.021 340.47 411.998 334.929 412H219.756C213.723 412.009 207.94 414.408 203.675 418.672C199.409 422.936 197.009 428.717 197 434.747V860.253C197.009 866.283 199.409 872.064 203.675 876.328C207.94 880.592 213.723 882.991 219.756 883H937.244C943.277 882.991 949.06 880.592 953.325 876.328C957.591 872.064 959.991 866.283 960 860.253V536.44C959.99 530.67 957.79 525.119 953.845 520.907C949.9 516.694 944.503 514.136 938.743 513.747L938.743 513.747ZM957.323 860.253C957.316 865.574 955.199 870.675 951.435 874.438C947.671 878.201 942.567 880.317 937.244 880.324H219.756C214.433 880.317 209.329 878.201 205.565 874.438C201.801 870.675 199.684 865.574 199.677 860.253V434.747C199.684 429.426 201.801 424.325 205.565 420.562C209.329 416.799 214.433 414.683 219.756 414.676H334.929C339.82 414.672 344.543 416.457 348.208 419.694L373.106 441.652L407.735 472.173L409.301 473.551L410.6 474.702L438.108 498.948L440.691 501.236L441.347 501.811L451.414 510.683C455.582 514.333 460.931 516.353 466.473 516.369H937.244C937.744 516.365 938.245 516.387 938.743 516.436C943.792 516.818 948.51 519.09 951.955 522.799C955.399 526.508 957.316 531.38 957.323 536.44L957.323 860.253ZM441.254 498.145L424.602 483.48L424.561 483.453L424.508 483.413L424.468 483.373C423.946 482.998 423.423 482.61 422.915 482.208C422.781 482.115 422.661 482.021 422.54 481.927C422.473 481.874 422.42 481.834 422.353 481.78C422.326 481.767 422.312 481.74 422.286 481.727C421.911 481.432 421.523 481.125 421.148 480.817C420.961 480.683 420.787 480.536 420.599 480.389C420.091 479.974 419.582 479.546 419.073 479.117C418.538 478.663 418.002 478.208 417.467 477.739C417.453 477.726 417.427 477.713 417.414 477.699C417.306 477.605 417.212 477.512 417.106 477.432C416.597 476.977 416.088 476.522 415.58 476.04C415.151 475.652 414.723 475.25 414.308 474.862C413.919 474.501 413.531 474.14 413.157 473.752L413.076 473.672C412.795 473.404 412.514 473.123 412.22 472.829C411.938 472.561 411.671 472.28 411.403 471.999C411.122 471.731 410.854 471.45 410.6 471.169L410.386 470.955L410.319 470.888L407.736 468.6V472.173L409.302 473.551L410.6 474.702L438.108 498.948L440.691 501.236L441.348 501.811L441.963 500.915L442.887 499.59L441.254 498.145ZM841.039 513.693C841.079 514.576 841.146 515.473 841.213 516.369H935.878V513.693H841.039ZM441.254 498.145L424.602 483.48L424.561 483.453L424.508 483.413L424.468 483.373C423.946 482.998 423.423 482.61 422.915 482.208C422.781 482.115 422.661 482.021 422.54 481.927C422.473 481.874 422.42 481.834 422.353 481.78C422.326 481.767 422.312 481.74 422.286 481.727C421.911 481.432 421.523 481.125 421.148 480.817C420.961 480.683 420.787 480.536 420.599 480.389C420.091 479.974 419.582 479.546 419.073 479.117C418.538 478.663 418.002 478.208 417.467 477.739C417.453 477.726 417.427 477.713 417.414 477.699C417.306 477.605 417.212 477.512 417.106 477.432C416.597 476.977 416.088 476.522 415.58 476.04C415.151 475.652 414.723 475.25 414.308 474.862C413.919 474.501 413.531 474.14 413.157 473.752L413.076 473.672C412.795 473.404 412.514 473.123 412.22 472.829C411.938 472.561 411.671 472.28 411.403 471.999C411.122 471.731 410.854 471.45 410.6 471.169L410.386 470.955L410.319 470.888L407.736 468.6V472.173L409.302 473.551L410.6 474.702L438.108 498.948L440.691 501.236L441.348 501.811L441.963 500.915L442.887 499.59L441.254 498.145ZM441.254 498.145L424.602 483.48L424.561 483.453L424.508 483.413L424.468 483.373C423.946 482.998 423.423 482.61 422.915 482.208C422.781 482.115 422.661 482.021 422.54 481.927C422.473 481.874 422.42 481.834 422.353 481.78C422.326 481.767 422.312 481.74 422.286 481.727C421.911 481.432 421.523 481.125 421.148 480.817C420.961 480.683 420.787 480.536 420.599 480.389C420.091 479.974 419.582 479.546 419.073 479.117C418.538 478.663 418.002 478.208 417.467 477.739C417.453 477.726 417.427 477.713 417.414 477.699C417.306 477.605 417.212 477.512 417.106 477.432C416.597 476.977 416.088 476.522 415.58 476.04C415.151 475.652 414.723 475.25 414.308 474.862C413.919 474.501 413.531 474.14 413.157 473.752L413.076 473.672C412.795 473.404 412.514 473.123 412.22 472.829C411.938 472.561 411.671 472.28 411.403 471.999C411.122 471.731 410.854 471.45 410.6 471.169L410.386 470.955L410.319 470.888L407.736 468.6V472.173L409.302 473.551L410.6 474.702L438.108 498.948L440.691 501.236L441.348 501.811L441.963 500.915L442.887 499.59L441.254 498.145ZM913.069 513.693H841.039C841.079 514.576 841.146 515.473 841.213 516.369H914.943L913.069 513.693Z" fill="#3F3D56"/>
<path d="M900.352 866H249.318C243.666 865.994 238.248 863.75 234.251 859.762C230.254 855.773 228.006 850.366 228 844.726V459.274C228.006 453.634 230.255 448.226 234.251 444.238C238.248 440.25 243.666 438.006 249.318 438C254.317 438.006 259.11 439.99 262.645 443.518C266.18 447.045 268.168 451.828 268.174 456.817V819.335C268.18 824.621 270.287 829.688 274.032 833.426C277.778 837.164 282.856 839.266 288.153 839.272H898.153C901.184 839.239 904.138 840.219 906.545 842.057C908.951 843.895 910.672 846.484 911.431 849.412C912.282 852.188 912.176 855.169 911.131 857.878C910.085 860.587 908.16 862.869 905.664 864.359C904.08 865.388 902.241 865.956 900.352 866Z" fill="#F2F2F2"/>
</svg>
